#!OML:ASF H:\Terrain\Patient Classification 1\Takeo\Monday\TakeoMonday.ASF
:FULLY-SPECIFIED
:DEGREES
485
root 4.77632 16.6912 1.64455 -169.475 74.0556 -168.848
lowerback 13.2636 0.178516 -0.474594
upperback 8.58598 0.796345 -2.70543
thorax 1.62856 0.708598 -2.63879
lowerneck 1.0873 -17.0701 -13.1844
upperneck 1.53784 -23.5639 15.933
head 3.74084 -11.7291 5.4475
rclavicle 1.11319e-014 4.92986e-014
rhumerus 9.50599 19.7543 -88.9322
rradius 26.1219
rwrist 10.0897
rhand -40.5623 52.1037
rfingers 7.12502
rthumb -13.5098 22.5619
lclavicle 1.11319e-014 4.92986e-014
lhumerus -17.8703 -5.99479 89.2877
lradius 87.5741
lwrist 27.7008
lhand -31.5077 25.069
lfingers 7.12502
lthumb -4.77339 54.9953
rfemur -20.7673 -8.77424 16.5784
rtibia 49.1417
rfoot -23.2844 -11.7086
rtoes -4.14929
lfemur -21.8519 13.5956 -8.83159
ltibia 50.4334
lfoot -20.1843 10.5042
ltoes -9.08732
486
root 4.79047 16.7037 1.67551 -168.614 74.4507 -168.159
lowerback 13.0605 0.113436 -0.474619
upperback 8.44955 0.690946 -2.79154
thorax 1.58879 0.648548 -2.71469
lowerneck 0.992289 -16.8721 -13.0205
upperneck 1.70857 -23.2875 15.751
head 3.72628 -11.5863 5.39996
rclavicle -3.29983e-014 1.74931e-014
rhumerus 8.6643 17.8595 -88.2313
rradius 26.2655
rwrist 9.33466
rhand -40.9006 51.0112
rfingers 7.12502
rthumb -13.8359 21.4914
lclavicle -3.29983e-014 1.74931e-014
lhumerus -18.0878 -5.72054 88.9935
lradius 87.5834
lwrist 27.6478
lhand -31.145 25.1693
lfingers 7.12502
lthumb -4.42313 55.1031
rfemur -20.9886 -8.42847 16.808
rtibia 49.1752
rfoot -23.2984 -11.2385
rtoes -2.83126
lfemur -21.7796 13.8301 -8.58133
ltibia 50.1396
lfoot -19.958 10.5836
ltoes -9.42687
487
root 4.80299 16.7242 1.70299 -167.388 74.748 -167.031
lowerback 12.8081 0.0353182 -0.45421
upperback 8.45387 0.581774 -2.61614
thorax 1.72021 0.584811 -2.52662
lowerneck 0.774825 -16.8838 -12.7009
upperneck 1.66872 -23.2311 15.105
head 3.62133 -11.5565 5.17595
rclavicle -7.51406e-014 3.65764e-014
rhumerus 8.12374 16.59 -86.7434
rradius 26.4462
rwrist 8.05244
rhand -41.805 50.5369
rfingers 7.12502
rthumb -14.7072 21.0786
lclavicle -7.51406e-014 3.65764e-014
lhumerus -18.0601 -5.29251 89.0528
lradius 87.6648
lwrist 27.7098
lhand -31.0664 25.4311
lfingers 7.12502
lthumb -4.34724 55.3665
rfemur -21.0826 -7.99157 17.0499
rtibia 49.2513
rfoot -23.4648 -10.2301
rtoes 0.691607
lfemur -21.6466 14.1006 -8.19136
ltibia 49.8187
lfoot -19.8536 10.4638
ltoes -9.17404
488
root 4.81763 16.7394 1.72787 -166.49 75.0999 -166.126
lowerback 12.6514 0.0723551 -0.203672
upperback 8.46746 0.65596 -2.70269
thorax 1.8255 0.63376 -2.76432
lowerneck 0.747845 -16.9852 -12.1995
upperneck 1.65693 -23.3337 14.6719
head 3.52296 -11.6097 4.9876
rclavicle 2.62396e-014 -3.18055e-015
rhumerus 7.63312 13.2745 -85.9866
rradius 26.0929
rwrist 8.69761
rhand -41.8659 50.7454
rfingers 7.12502
rthumb -14.7659 21.2914
lclavicle 2.62396e-014 -3.18055e-015
lhumerus -18.0417 -5.66967 88.7496
lradius 87.808
lwrist 27.6439
lhand -30.7819 25.375
lfingers 7.12502
lthumb -4.07254 55.3159
rfemur -21.1205 -7.76745 17.2598
rtibia 49.3498
rfoot -23.9159 -9.32106
rtoes 4.49032
lfemur -21.3525 14.3708 -7.87582
ltibia 49.5347
lfoot -19.7368 10.7174
ltoes -10.4064
489
root 4.8341 16.7409 1.75667 -166.386 75.5573 -166.034
lowerback 12.5718 0.0936995 -0.493057
upperback 8.38159 0.642626 -2.67635
thorax 1.77328 0.608622 -2.57143
lowerneck 0.743715 -16.9174 -12.5124
upperneck 1.97259 -23.2636 14.5526
head 3.62964 -11.5722 4.98478
rclavicle 1.27222e-014 -2.8625e-014
rhumerus 6.99789 10.6508 -85.0528
rradius 25.8964
rwrist 8.96158
rhand -41.8203 50.5894
rfingers 7.12502
rthumb -14.7221 21.1322
lclavicle 1.27222e-014 -2.8625e-014
lhumerus -18.2531 -5.48198 88.6356
lradius 87.943
lwrist 27.3371
lhand -30.6765 25.5131
lfingers 7.12502
lthumb -3.97077 55.4558
rfemur -21.2217 -7.79528 17.3862
rtibia 49.3184
rfoot -23.7771 -9.39307
rtoes 4.29635
lfemur -21.0378 14.5286 -7.80671
ltibia 49.3089
lfoot -19.8415 10.9924
ltoes -11.687
